Stolen.R5.DVDRip.XVID.AC3.HQ.Hive-CM8


Thx Hive

CM8 Doing It Right The First Time 


Source:
Russian DVD-R9 
Medalon.2012.D.DVD9
thx

Encode:
Here is a nice rip of the real source,
not that which most are selling reencoded of avi and custom vob files.
Quality was nice, also came along with Studio 5.1 audio.
so did the usual added brighntess, sharpness, fixed rgb and denoise.
got very nice and will do perfectly till bluray comes along.
enjoy

Video: 720x400 @bitrate 1700 2pass
Audio: English AC3 5.1 @384
Sample: Yes, included

 
http://www.imdb.com/title/tt1656186/


General
Complete name                  : Stolen.R5.DVDRip.XVID.AC3.HQ.Hive-CM8.avi
Format                         : AVI
Format/Info                    : Audio Video Interleave
File size                      : 1.34 GiB
Duration                       : 1h 31mn
Overall bit rate               : 2 091 Kbps
Writing application            : Nandub v1.0rc2
Writing library                : Nandub build 1853/release

Video
ID                             : 0
Format                         : MPEG-4 Visual
Format profile                 : Advanced Simple@L5
Format settings, BVOP          : 2
Format settings, QPel          : Yes
Format settings, GMC           : No warppoints
Format settings, Matrix        : Default (H.263)
Muxing mode                    : Packed bitstream
Codec ID                       : XVID
Codec ID/Hint                  : XviD
Duration                       : 1h 31mn
Bit rate                       : 1 698 Kbps
Width                          : 720 pixels
Height                         : 400 pixels
Display aspect ratio           : 16:9
Frame rate                     : 25.000 fps
Color space                    : YUV
Chroma subsampling             : 4:2:0
Bit depth                      : 8 bits
Scan type                      : Progressive
Compression mode               : Lossy
Bits/(Pixel*Frame)             : 0.236
Stream size                    : 1.09 GiB (81%)
Writing library                : XviD 1.2.1 (UTC 2008-12-04)

Audio
ID                             : 1
Format                         : AC-3
Format/Info                    : Audio Coding 3
Mode extension                 : CM (complete main)
Format settings, Endianness    : Big
Codec ID                       : 2000
Duration                       : 1h 31mn
Bit rate mode                  : Constant
Bit rate                       : 384 Kbps
Channel(s)                     : 6 channels
Channel positions              : Front: L C R, Side: L R, LFE
Sampling rate                  : 48.0 KHz
Bit depth                      : 16 bits
Compression mode               : Lossy
Stream size                    : 252 MiB (18%)
Alignment                      : Split accross interleaves
Interleave, duration           : 40 ms (1.00 video frame)
Interleave, preload duration   : 500 ms


Plot:
A former thief frantically searches for his missing daughter,
who has been kidnapped and locked in the trunk of a taxi.


Cast:
Nicolas Cage     ...     Will Montgomery
Josh Lucas       ...     Vincent
Malin Akerman    ...     Riley Jeffers
Danny Huston     ...     Tim Harlend


Poster:

 
http://i.imgur.com/njq1D.jpg


Screenshots:

 
http://i.imgur.com/rsBjO.jpg


ENJOY!